<svg xmlns="http://www.w3.org/2000/svg" xmlns:xlink="http://www.w3.org/1999/xlink">
    <defs>
        <marker id="arrowend" markerWidth="10" markerHeight="7" refX="10" refY="3.5" orient="auto">
          <polygon points="0 0, 10 3.5, 0 7" />
        </marker>
        <marker id="arrowstart" markerWidth="10" markerHeight="7" refX="0" refY="3.5" orient="auto">
          <polygon points="10 0, 0 3.5, 10 7" />
        </marker>
    </defs>
    <style type="text/css" >
    <![CDATA[
        .cut path {
            stroke: #222222;
            fill: #444444;
            fill-rule: evenodd;
        }
        .projection path {
            stroke: #222222;
            fill: none;
            stroke-opacity: 0.6;
        }
        .IfcDoor path,
        .Symbol path {
            fill: none;
        }
        .Symbol path {
            stroke-width: 0.5px;
        }
        .IfcSpace path {
            fill-opacity: .2;
        }
        .Dimension path {
            marker-end: url(#arrowend);
            marker-start: url(#arrowstart);
        }
    ]]>
    </style>
    <g id="storey-a8f3bcfc-63b2-45c0-902d-c368556386c0" class="IfcBuildingStorey" data-name="Erdgeschoss" data-guid="2eyxpyOx95m90jmsXLOuR0"  data-plane="[[1.000000,0.000000,0.000000,0.000000],[0.000000,1.000000,0.000000,0.000000],[0.000000,0.000000,1.000000,1.200000],[0.000000,0.000000,0.000000,1.000000]]" data-matrix3="[[85.333333,0.000000,0.000000],[0.000000,85.333333,853.333333],[0.000000,0.000000,1.000000]]">
        <g id="storey-a8f3bcfc-63b2-45c0-902d-c368556386c0-product-a167c520-8800-48d8-a07c-aa352a699dde-body" class="IfcWallStandardCase" data-name="Wand-Int-ERDG-4" data-guid="2XPyKWY018sA1ygZKgQPtU" >
            <path d="M632.32,511.147 L998.4,511.147 L998.4,490.667 L652.8,490.667 L632.32,511.147"/>
        </g>
        <g id="storey-a8f3bcfc-63b2-45c0-902d-c368556386c0-product-d9a5cfbe-8be3-4b2a-9d05-c64586f4d0a3-body" class="IfcWallStandardCase" data-name="Wand-Int-ERDG-2" data-guid="3PfS__Y_DBAfq5naM6zD2Z" >
            <path d="M632.32,25.6 L632.32,388.907 L652.8,388.907 L652.8,25.6 L632.32,25.6 M632.32,464.427 L632.32,511.147 L652.8,490.667 L652.8,464.427 L632.32,464.427"/>
        </g>
        <g id="storey-a8f3bcfc-63b2-45c0-902d-c368556386c0-product-58c36207-1644-4382-afc9-bc61510a343a-body" class="IfcDoor" data-name="Innentuer-1" data-guid="1Oms875aH3Wg$9l65H2ZGw" >
            <path d="M632.32,464.427 L632.32,460.16 L640.853,460.16 L640.853,464.427 L632.32,464.427 M632.32,393.173 L632.32,388.907 L640.853,388.907 L640.853,393.173 L632.32,393.173"/>
            <path d="M632.32,393.173 L635.733,393.173 L635.733,460.16 L632.32,460.16 L632.32,393.173"/>
        </g>
        <g id="storey-a8f3bcfc-63b2-45c0-902d-c368556386c0-product-b3dee06e-1f4c-48f9-ab82-0b9b6bfc034e-body" class="IfcWallStandardCase" data-name="Wand-Int-ERDG-1" data-guid="2ptk1k7qn8_Qk22vjh$0DE" >
            <path d="M324.267,25.6 L324.267,342.187 L344.747,342.187 L344.747,25.6 L324.267,25.6"/>
        </g>
        <g id="storey-a8f3bcfc-63b2-45c0-902d-c368556386c0-product-edb600f5-5461-46a3-b0c4-43ad8208ea56-body" class="IfcWallStandardCase" data-name="Wand-Int-ERDG-3" data-guid="3jjW3rL656ex34Gws22EfM" >
            <path d="M137.173,362.667 L137.173,342.187 L25.6,342.187 L25.6,362.667 L137.173,362.667 M212.693,342.187 L212.693,362.667 L445.227,362.667 L445.227,342.187 L212.693,342.187 M520.747,342.187 L520.747,362.667 L632.32,362.667 L632.32,342.187 L520.747,342.187"/>
        </g>
        <g id="storey-a8f3bcfc-63b2-45c0-902d-c368556386c0-product-3340ab6f-4d66-43b2-9899-29d7cf17b29b-body" class="IfcDoor" data-name="Innentuer-2" data-guid="0pGAjlJMP3ifYPATVF5xAR" >
            <path d="M520.747,354.133 L520.747,362.667 L516.48,362.667 L516.48,354.133 L520.747,354.133 M449.493,362.667 L445.227,362.667 L445.227,354.133 L449.493,354.133 L449.493,362.667"/>
            <path d="M449.493,357.547 L449.493,354.133 L516.48,354.133 L516.48,357.547 L449.493,357.547"/>
        </g>
        <g id="storey-a8f3bcfc-63b2-45c0-902d-c368556386c0-product-b4b1964f-0cfd-4f21-84b4-a7552c71ed30-body" class="IfcDoor" data-name="Innentuer-3" data-guid="2qiPPF3FrF8OIqfrKiSUqm" >
            <path d="M212.693,354.133 L212.693,362.667 L208.427,362.667 L208.427,354.133 L212.693,354.133 M141.44,362.667 L137.173,362.667 L137.173,354.133 L141.44,354.133 L141.44,362.667"/>
            <path d="M141.44,357.547 L141.44,354.133 L208.427,354.133 L208.427,357.547 L141.44,357.547"/>
        </g>
        <g id="storey-a8f3bcfc-63b2-45c0-902d-c368556386c0-product-7feb09fa-819b-4d8b-8bb8-faaadfbbcc4e-body" class="IfcWallStandardCase" data-name="Wand-Int-ERDG-5" data-guid="1$wmdwWPjDYuku_ghVkynE" >
            <path d="M25.6,511.147 L324.267,511.147 L324.267,490.667 L25.6,490.667 L25.6,511.147"/>
        </g>
        <g id="storey-a8f3bcfc-63b2-45c0-902d-c368556386c0-product-f5661f93-e3d1-49ce-8861-886e8d4ef048-body" class="IfcWallStandardCase" data-name="Wand-Ext-ERDG-1" data-guid="3rPX_Juz59peXXY6wDJl18" >
            <path d="M25.6,827.733 L25.6,750.507 L14.5067,750.507 L2.60532e-14,750.507 L3.31587e-14,853.333 L25.6,827.733 M25.6,579.84 L25.6,469.76 L1.89478e-14,469.76 L3.31587e-14,579.84 L14.5067,579.84 L25.6,579.84 M25.6,383.573 L25.6,299.093 L14.5067,299.093 L2.60532e-14,299.093 L3.31587e-14,383.573 L25.6,383.573 M25.6,128.427 L25.6,25.6 L3.31587e-14,0 L3.31587e-14,128.427 L14.5067,128.427 L25.6,128.427"/>
        </g>
        <g id="storey-a8f3bcfc-63b2-45c0-902d-c368556386c0-product-76d4a4bf-6c47-48b2-b561-71747079c39d-body" class="IfcWindow" data-name="EG-Fenster-6" data-guid="1srAI$R4T8ihLXSNHmUSET" >
            <path d="M10.24,128.427 L14.5067,128.427 L14.5067,134.4 L10.24,134.4 L10.24,128.427 M14.5067,210.773 L14.5067,216.747 L10.24,216.747 L10.24,210.773 L14.5067,210.773 M14.5067,293.12 L14.5067,299.093 L10.24,299.093 L10.24,293.12 L14.5067,293.12"/>
            <path d="M12.3733,134.4 L14.5067,134.4 L14.5067,136.533 L12.3733,136.533 L12.3733,134.4 M14.5067,208.64 L14.5067,210.773 L12.3733,210.773 L12.3733,208.64 L14.5067,208.64"/>
            <path d="M14.5067,132.267 L16.64,132.267 L16.64,136.533 L14.5067,136.533 L14.5067,132.267 M16.64,208.64 L16.64,212.907 L14.5067,212.907 L14.5067,208.64 L16.64,208.64"/>
            <path d="M13.6533,136.533 L15.36,136.533 L15.36,208.64 L13.6533,208.64 L13.6533,136.533"/>
            <path d="M12.3733,216.747 L14.5067,216.747 L14.5067,218.88 L12.3733,218.88 L12.3733,216.747 M14.5067,290.987 L14.5067,293.12 L12.3733,293.12 L12.3733,290.987 L14.5067,290.987"/>
            <path d="M14.5067,214.613 L16.64,214.613 L16.64,218.88 L14.5067,218.88 L14.5067,214.613 M16.64,290.987 L16.64,295.253 L14.5067,295.253 L14.5067,290.987 L16.64,290.987"/>
            <path d="M13.6533,218.88 L15.36,218.88 L15.36,290.987 L13.6533,290.987 L13.6533,218.88"/>
        </g>
        <g id="storey-a8f3bcfc-63b2-45c0-902d-c368556386c0-product-0b05be8e-f7d6-4332-958e-1576ff7f4ac5-body" class="IfcWindow" data-name="EG-Fenster-7" data-guid="0B1RwEzzP3CfME5NR$Vqh5" >
            <path d="M10.24,750.507 L10.24,744.533 L14.5067,744.533 L14.5067,750.507 L10.24,750.507 M10.24,668.16 L10.24,662.187 L14.5067,662.187 L14.5067,668.16 L10.24,668.16 M10.24,585.813 L10.24,579.84 L14.5067,579.84 L14.5067,585.813 L10.24,585.813"/>
            <path d="M12.3733,744.533 L12.3733,742.4 L14.5067,742.4 L14.5067,744.533 L12.3733,744.533 M12.3733,670.293 L12.3733,668.16 L14.5067,668.16 L14.5067,670.293 L12.3733,670.293"/>
            <path d="M14.5067,746.667 L14.5067,742.4 L16.64,742.4 L16.64,746.667 L14.5067,746.667 M14.5067,670.293 L14.5067,666.027 L16.64,666.027 L16.64,670.293 L14.5067,670.293"/>
            <path d="M13.6533,742.4 L13.6533,670.293 L15.36,670.293 L15.36,742.4 L13.6533,742.4"/>
            <path d="M12.3733,662.187 L12.3733,660.053 L14.5067,660.053 L14.5067,662.187 L12.3733,662.187 M12.3733,587.947 L12.3733,585.813 L14.5067,585.813 L14.5067,587.947 L12.3733,587.947"/>
            <path d="M14.5067,664.32 L14.5067,660.053 L16.64,660.053 L16.64,664.32 L14.5067,664.32 M14.5067,587.947 L14.5067,583.68 L16.64,583.68 L16.64,587.947 L14.5067,587.947"/>
            <path d="M13.6533,660.053 L13.6533,587.947 L15.36,587.947 L15.36,660.053 L13.6533,660.053"/>
        </g>
        <g id="storey-a8f3bcfc-63b2-45c0-902d-c368556386c0-product-ad75bd26-aeda-47c8-b03c-ada184182740-body" class="IfcDoor" data-name="Haustuer" data-guid="2jTRqchjf7oB0yhQ6462T0" >
            <path d="M25.6,469.76 L18.7733,469.76 L18.7733,468.053 L25.6,468.053 L25.6,469.76 M18.7733,385.28 L18.7733,383.573 L25.6,383.573 L25.6,385.28 L18.7733,385.28"/>
            <path d="M18.7733,469.76 L17.0667,469.76 L17.0667,465.493 L18.7733,465.493 L18.7733,469.76 M17.0667,387.84 L17.0667,383.573 L18.7733,383.573 L18.7733,387.84 L17.0667,387.84"/>
            <path d="M24.7467,468.053 L18.7733,468.053 L18.7733,385.28 L24.7467,385.28 L24.7467,468.053"/>
        </g>
        <g id="storey-a8f3bcfc-63b2-45c0-902d-c368556386c0-product-463575f4-f696-42de-bde9-918a6fe7650a-body" class="IfcWallStandardCase" data-name="Wand-Ext-ERDG-4" data-guid="16DNNqzfP2thtfaOflvsKA" >
            <path d="M998.4,827.733 L871.253,827.733 L871.253,838.827 L871.253,853.333 L1024,853.333 L998.4,827.733 M700.587,827.733 L597.76,827.733 L597.76,853.333 L700.587,853.333 L700.587,838.827 L700.587,827.733 M426.24,827.733 L323.413,827.733 L323.413,838.827 L323.413,853.333 L426.24,853.333 L426.24,827.733 M152.747,827.733 L25.6,827.733 L3.31587e-14,853.333 L152.747,853.333 L152.747,838.827 L152.747,827.733"/>
        </g>
        <g id="storey-a8f3bcfc-63b2-45c0-902d-c368556386c0-product-85c53ece-ce2a-4855-b353-5ee59e7d8030-body" class="IfcWindow" data-name="EG-Fenster-4" data-guid="25nJxEpYf8LRDJNkMUVO0m" >
            <path d="M323.413,843.093 L317.44,843.093 L317.44,838.827 L323.413,838.827 L323.413,843.093 M241.067,843.093 L235.093,843.093 L235.093,838.827 L241.067,838.827 L241.067,843.093 M158.72,843.093 L152.747,843.093 L152.747,838.827 L158.72,838.827 L158.72,843.093"/>
            <path d="M317.44,840.96 L315.307,840.96 L315.307,838.827 L317.44,838.827 L317.44,840.96 M243.2,840.96 L241.067,840.96 L241.067,838.827 L243.2,838.827 L243.2,840.96"/>
            <path d="M319.573,838.827 L315.307,838.827 L315.307,836.693 L319.573,836.693 L319.573,838.827 M243.2,838.827 L238.933,838.827 L238.933,836.693 L243.2,836.693 L243.2,838.827"/>
            <path d="M315.307,839.68 L243.2,839.68 L243.2,837.973 L315.307,837.973 L315.307,839.68"/>
            <path d="M235.093,840.96 L232.96,840.96 L232.96,838.827 L235.093,838.827 L235.093,840.96 M160.853,840.96 L158.72,840.96 L158.72,838.827 L160.853,838.827 L160.853,840.96"/>
            <path d="M237.227,838.827 L232.96,838.827 L232.96,836.693 L237.227,836.693 L237.227,838.827 M160.853,838.827 L156.587,838.827 L156.587,836.693 L160.853,836.693 L160.853,838.827"/>
            <path d="M232.96,839.68 L160.853,839.68 L160.853,837.973 L232.96,837.973 L232.96,839.68"/>
        </g>
        <g id="storey-a8f3bcfc-63b2-45c0-902d-c368556386c0-product-cb3e6f2f-3368-4711-968a-c9b2a81695f9-body" class="IfcWindow" data-name="EG-Fenster-5" data-guid="3BFcylCsX74PQAoRAe5fNv" >
            <path d="M871.253,843.093 L865.28,843.093 L865.28,838.827 L871.253,838.827 L871.253,843.093 M788.907,843.093 L782.933,843.093 L782.933,838.827 L788.907,838.827 L788.907,843.093 M706.56,843.093 L700.587,843.093 L700.587,838.827 L706.56,838.827 L706.56,843.093"/>
            <path d="M865.28,840.96 L863.147,840.96 L863.147,838.827 L865.28,838.827 L865.28,840.96 M791.04,840.96 L788.907,840.96 L788.907,838.827 L791.04,838.827 L791.04,840.96"/>
            <path d="M867.413,838.827 L863.147,838.827 L863.147,836.693 L867.413,836.693 L867.413,838.827 M791.04,838.827 L786.773,838.827 L786.773,836.693 L791.04,836.693 L791.04,838.827"/>
            <path d="M863.147,839.68 L791.04,839.68 L791.04,837.973 L863.147,837.973 L863.147,839.68"/>
            <path d="M782.933,840.96 L780.8,840.96 L780.8,838.827 L782.933,838.827 L782.933,840.96 M708.693,840.96 L706.56,840.96 L706.56,838.827 L708.693,838.827 L708.693,840.96"/>
            <path d="M785.067,838.827 L780.8,838.827 L780.8,836.693 L785.067,836.693 L785.067,838.827 M708.693,838.827 L704.427,838.827 L704.427,836.693 L708.693,836.693 L708.693,838.827"/>
            <path d="M780.8,839.68 L708.693,839.68 L708.693,837.973 L780.8,837.973 L780.8,839.68"/>
        </g>
        <g id="storey-a8f3bcfc-63b2-45c0-902d-c368556386c0-product-56feaede-d610-4fb3-aa03-64613ae87785-body" class="IfcDoor" data-name="Terrassentuer" data-guid="1M$gxUrX1Fiwe3P64ww7U5" >
            <path d="M597.76,827.733 L597.76,836.267 L593.493,836.267 L593.493,827.733 L597.76,827.733 M430.507,836.267 L426.24,836.267 L426.24,827.733 L430.507,827.733 L430.507,836.267"/>
            <path d="M593.493,834.133 L593.493,838.4 L589.227,838.4 L589.227,834.133 L593.493,834.133 M540.587,838.4 L536.32,838.4 L536.32,834.133 L540.587,834.133 L540.587,838.4"/>
            <path d="M589.227,835.84 L589.227,836.693 L540.587,836.693 L540.587,835.84 L589.227,835.84"/>
            <path d="M565.973,835.2 L565.973,837.333 L563.84,837.333 L563.84,835.2 L565.973,835.2"/>
            <path d="M540.587,829.867 L540.587,834.133 L536.32,834.133 L536.32,829.867 L540.587,829.867 M487.68,834.133 L483.413,834.133 L483.413,829.867 L487.68,829.867 L487.68,834.133"/>
            <path d="M536.32,831.573 L536.32,832.427 L487.68,832.427 L487.68,831.573 L536.32,831.573"/>
            <path d="M513.067,830.933 L513.067,833.067 L510.933,833.067 L510.933,830.933 L513.067,830.933"/>
            <path d="M487.68,825.6 L487.68,829.867 L483.413,829.867 L483.413,825.6 L487.68,825.6 M434.773,829.867 L430.507,829.867 L430.507,825.6 L434.773,825.6 L434.773,829.867"/>
            <path d="M483.413,827.307 L483.413,828.16 L434.773,828.16 L434.773,827.307 L483.413,827.307"/>
            <path d="M460.16,826.667 L460.16,828.8 L458.027,828.8 L458.027,826.667 L460.16,826.667"/>
        </g>
        <g id="storey-a8f3bcfc-63b2-45c0-902d-c368556386c0-product-85a76959-f2e0-457f-9e21-4bff17528c54-body" class="IfcWallStandardCase" data-name="Wand-Ext-ERDG-3" data-guid="25fsbPyk15VvuXI$yNKenK" >
            <path d="M998.4,25.6 L998.4,127.796 L1009.49,127.796 L1024,127.796 L1024,0 L998.4,25.6 M998.4,298.462 L998.4,579.84 L1009.49,579.84 L1024,579.84 L1024,298.462 L1009.49,298.462 L998.4,298.462 M998.4,750.507 L998.4,827.733 L1024,853.333 L1024,750.507 L1009.49,750.507 L998.4,750.507"/>
        </g>
        <g id="storey-a8f3bcfc-63b2-45c0-902d-c368556386c0-product-4391c887-27d9-48a5-9111-2b339303dfa8-body" class="IfcWindow" data-name="EG-Fenster-8" data-guid="13aSY79zb8fP4HApEJ0z_e" >
            <path d="M1013.76,127.796 L1013.76,133.769 L1009.49,133.769 L1009.49,127.796 L1013.76,127.796 M1013.76,210.142 L1013.76,216.116 L1009.49,216.116 L1009.49,210.142 L1013.76,210.142 M1013.76,292.489 L1013.76,298.462 L1009.49,298.462 L1009.49,292.489 L1013.76,292.489"/>
            <path d="M1011.63,133.769 L1011.63,135.902 L1009.49,135.902 L1009.49,133.769 L1011.63,133.769 M1011.63,208.009 L1011.63,210.142 L1009.49,210.142 L1009.49,208.009 L1011.63,208.009"/>
            <path d="M1009.49,131.636 L1009.49,135.902 L1007.36,135.902 L1007.36,131.636 L1009.49,131.636 M1009.49,208.009 L1009.49,212.276 L1007.36,212.276 L1007.36,208.009 L1009.49,208.009"/>
            <path d="M1010.35,135.902 L1010.35,208.009 L1008.64,208.009 L1008.64,135.902 L1010.35,135.902"/>
            <path d="M1011.63,216.116 L1011.63,218.249 L1009.49,218.249 L1009.49,216.116 L1011.63,216.116 M1011.63,290.356 L1011.63,292.489 L1009.49,292.489 L1009.49,290.356 L1011.63,290.356"/>
            <path d="M1009.49,213.982 L1009.49,218.249 L1007.36,218.249 L1007.36,213.982 L1009.49,213.982 M1009.49,290.356 L1009.49,294.622 L1007.36,294.622 L1007.36,290.356 L1009.49,290.356"/>
            <path d="M1010.35,218.249 L1010.35,290.356 L1008.64,290.356 L1008.64,218.249 L1010.35,218.249"/>
        </g>
        <g id="storey-a8f3bcfc-63b2-45c0-902d-c368556386c0-product-8e6abfad-ad90-4bf8-af8a-5b8713985380-body" class="IfcWindow" data-name="EG-Fenster-9" data-guid="2EQh_jhP1B_A_AMuSJc5E0" >
            <path d="M1013.76,750.507 L1009.49,750.507 L1009.49,744.533 L1013.76,744.533 L1013.76,750.507 M1009.49,668.16 L1009.49,662.187 L1013.76,662.187 L1013.76,668.16 L1009.49,668.16 M1009.49,585.813 L1009.49,579.84 L1013.76,579.84 L1013.76,585.813 L1009.49,585.813"/>
            <path d="M1011.63,744.533 L1009.49,744.533 L1009.49,742.4 L1011.63,742.4 L1011.63,744.533 M1009.49,670.293 L1009.49,668.16 L1011.63,668.16 L1011.63,670.293 L1009.49,670.293"/>
            <path d="M1009.49,746.667 L1007.36,746.667 L1007.36,742.4 L1009.49,742.4 L1009.49,746.667 M1007.36,670.293 L1007.36,666.027 L1009.49,666.027 L1009.49,670.293 L1007.36,670.293"/>
            <path d="M1010.35,742.4 L1008.64,742.4 L1008.64,670.293 L1010.35,670.293 L1010.35,742.4"/>
            <path d="M1011.63,662.187 L1009.49,662.187 L1009.49,660.053 L1011.63,660.053 L1011.63,662.187 M1009.49,587.947 L1009.49,585.813 L1011.63,585.813 L1011.63,587.947 L1009.49,587.947"/>
            <path d="M1009.49,664.32 L1007.36,664.32 L1007.36,660.053 L1009.49,660.053 L1009.49,664.32 M1007.36,587.947 L1007.36,583.68 L1009.49,583.68 L1009.49,587.947 L1007.36,587.947"/>
            <path d="M1010.35,660.053 L1008.64,660.053 L1008.64,587.947 L1010.35,587.947 L1010.35,660.053"/>
        </g>
        <g id="storey-a8f3bcfc-63b2-45c0-902d-c368556386c0-product-65f697f6-4f4c-4836-8159-e2e335d3cbfd-body" class="IfcWallStandardCase" data-name="Wand-Ext-ERDG-2" data-guid="1bzfVsJqn8De5PukCrqylz" >
            <path d="M25.6,25.6 L89.6,25.6 L89.6,14.5067 L89.6,0 L3.31587e-14,0 L25.6,25.6 M260.267,25.6 L397.653,25.6 L397.653,14.5067 L397.653,0 L260.267,0 L260.267,14.5067 L260.267,25.6 M568.32,25.6 L750.507,25.6 L750.507,14.5067 L750.507,0 L568.32,0 L568.32,14.5067 L568.32,25.6 M921.173,25.6 L998.4,25.6 L1024,0 L921.173,0 L921.173,14.5067 L921.173,25.6"/>
        </g>
        <g id="storey-a8f3bcfc-63b2-45c0-902d-c368556386c0-product-5d292132-e148-4487-b12f-2cd8d2e05d16-body" class="IfcWindow" data-name="EG-Fenster-1" data-guid="1TAI4ouKX4Xx4lBDZIu5qM" >
            <path d="M260.267,10.24 L260.267,14.5067 L254.293,14.5067 L254.293,10.24 L260.267,10.24 M177.92,14.5067 L171.947,14.5067 L171.947,10.24 L177.92,10.24 L177.92,14.5067 M95.5733,14.5067 L89.6,14.5067 L89.6,10.24 L95.5733,10.24 L95.5733,14.5067"/>
            <path d="M254.293,12.3733 L254.293,14.5067 L252.16,14.5067 L252.16,12.3733 L254.293,12.3733 M180.053,14.5067 L177.92,14.5067 L177.92,12.3733 L180.053,12.3733 L180.053,14.5067"/>
            <path d="M256.427,14.5067 L256.427,16.64 L252.16,16.64 L252.16,14.5067 L256.427,14.5067 M180.053,16.64 L175.787,16.64 L175.787,14.5067 L180.053,14.5067 L180.053,16.64"/>
            <path d="M252.16,13.6533 L252.16,15.36 L180.053,15.36 L180.053,13.6533 L252.16,13.6533"/>
            <path d="M171.947,12.3733 L171.947,14.5067 L169.813,14.5067 L169.813,12.3733 L171.947,12.3733 M97.7067,14.5067 L95.5733,14.5067 L95.5733,12.3733 L97.7067,12.3733 L97.7067,14.5067"/>
            <path d="M174.08,14.5067 L174.08,16.64 L169.813,16.64 L169.813,14.5067 L174.08,14.5067 M97.7067,16.64 L93.44,16.64 L93.44,14.5067 L97.7067,14.5067 L97.7067,16.64"/>
            <path d="M169.813,13.6533 L169.813,15.36 L97.7067,15.36 L97.7067,13.6533 L169.813,13.6533"/>
        </g>
        <g id="storey-a8f3bcfc-63b2-45c0-902d-c368556386c0-product-9a27a1f2-6e16-4210-9b4b-ca53967f4be3-body" class="IfcWindow" data-name="EG-Fenster-2" data-guid="2Q9w7oRXP249jBobEMVqlZ" >
            <path d="M568.32,10.24 L568.32,14.5067 L562.347,14.5067 L562.347,10.24 L568.32,10.24 M485.973,14.5067 L480,14.5067 L480,10.24 L485.973,10.24 L485.973,14.5067 M403.627,14.5067 L397.653,14.5067 L397.653,10.24 L403.627,10.24 L403.627,14.5067"/>
            <path d="M562.347,12.3733 L562.347,14.5067 L560.213,14.5067 L560.213,12.3733 L562.347,12.3733 M488.107,14.5067 L485.973,14.5067 L485.973,12.3733 L488.107,12.3733 L488.107,14.5067"/>
            <path d="M564.48,14.5067 L564.48,16.64 L560.213,16.64 L560.213,14.5067 L564.48,14.5067 M488.107,16.64 L483.84,16.64 L483.84,14.5067 L488.107,14.5067 L488.107,16.64"/>
            <path d="M560.213,13.6533 L560.213,15.36 L488.107,15.36 L488.107,13.6533 L560.213,13.6533"/>
            <path d="M480,12.3733 L480,14.5067 L477.867,14.5067 L477.867,12.3733 L480,12.3733 M405.76,14.5067 L403.627,14.5067 L403.627,12.3733 L405.76,12.3733 L405.76,14.5067"/>
            <path d="M482.133,14.5067 L482.133,16.64 L477.867,16.64 L477.867,14.5067 L482.133,14.5067 M405.76,16.64 L401.493,16.64 L401.493,14.5067 L405.76,14.5067 L405.76,16.64"/>
            <path d="M477.867,13.6533 L477.867,15.36 L405.76,15.36 L405.76,13.6533 L477.867,13.6533"/>
        </g>
        <g id="storey-a8f3bcfc-63b2-45c0-902d-c368556386c0-product-4db22d2b-a7d4-49ef-be13-9df47a84c5e4-body" class="IfcWindow" data-name="EG-Fenster-3" data-guid="1DiYqhfzH9xxuJdVHwXCNa" >
            <path d="M921.173,10.24 L921.173,14.5067 L915.2,14.5067 L915.2,10.24 L921.173,10.24 M838.827,14.5067 L832.853,14.5067 L832.853,10.24 L838.827,10.24 L838.827,14.5067 M756.48,14.5067 L750.507,14.5067 L750.507,10.24 L756.48,10.24 L756.48,14.5067"/>
            <path d="M915.2,12.3733 L915.2,14.5067 L913.067,14.5067 L913.067,12.3733 L915.2,12.3733 M840.96,14.5067 L838.827,14.5067 L838.827,12.3733 L840.96,12.3733 L840.96,14.5067"/>
            <path d="M917.333,14.5067 L917.333,16.64 L913.067,16.64 L913.067,14.5067 L917.333,14.5067 M840.96,16.64 L836.693,16.64 L836.693,14.5067 L840.96,14.5067 L840.96,16.64"/>
            <path d="M913.067,13.6533 L913.067,15.36 L840.96,15.36 L840.96,13.6533 L913.067,13.6533"/>
            <path d="M832.853,12.3733 L832.853,14.5067 L830.72,14.5067 L830.72,12.3733 L832.853,12.3733 M758.613,14.5067 L756.48,14.5067 L756.48,12.3733 L758.613,12.3733 L758.613,14.5067"/>
            <path d="M834.987,14.5067 L834.987,16.64 L830.72,16.64 L830.72,14.5067 L834.987,14.5067 M758.613,16.64 L754.347,16.64 L754.347,14.5067 L758.613,14.5067 L758.613,16.64"/>
            <path d="M830.72,13.6533 L830.72,15.36 L758.613,15.36 L758.613,13.6533 L830.72,13.6533"/>
        </g>
        <g id="storey-a8f3bcfc-63b2-45c0-902d-c368556386c0-product-a167c520-8800-48d8-a07c-aa352a699dde-box" class="IfcWallStandardCase" data-name="Wand-Int-ERDG-4" data-guid="2XPyKWY018sA1ygZKgQPtU" >
            <path d="M632.32,490.667 L632.32,511.147 L998.4,511.147 L998.4,490.667 L632.32,490.667"/>
        </g>
        <g id="storey-a8f3bcfc-63b2-45c0-902d-c368556386c0-product-d9a5cfbe-8be3-4b2a-9d05-c64586f4d0a3-box" class="IfcWallStandardCase" data-name="Wand-Int-ERDG-2" data-guid="3PfS__Y_DBAfq5naM6zD2Z" >
            <path d="M632.32,388.907 L652.8,388.907 L652.8,25.6 L632.32,25.6 L632.32,388.907 M652.8,464.427 L632.32,464.427 L632.32,511.147 L652.8,511.147 L652.8,464.427"/>
        </g>
        <g id="storey-a8f3bcfc-63b2-45c0-902d-c368556386c0-product-58c36207-1644-4382-afc9-bc61510a343a-box" class="IfcDoor" data-name="Innentuer-1" data-guid="1Oms875aH3Wg$9l65H2ZGw" >
            <path d="M632.32,464.427 L640.853,464.427 L640.853,388.907 L632.32,388.907 L632.32,464.427"/>
        </g>
        <g id="storey-a8f3bcfc-63b2-45c0-902d-c368556386c0-product-b3dee06e-1f4c-48f9-ab82-0b9b6bfc034e-box" class="IfcWallStandardCase" data-name="Wand-Int-ERDG-1" data-guid="2ptk1k7qn8_Qk22vjh$0DE" >
            <path d="M344.747,25.6 L324.267,25.6 L324.267,342.187 L344.747,342.187 L344.747,25.6"/>
        </g>
        <g id="storey-a8f3bcfc-63b2-45c0-902d-c368556386c0-product-edb600f5-5461-46a3-b0c4-43ad8208ea56-box" class="IfcWallStandardCase" data-name="Wand-Int-ERDG-3" data-guid="3jjW3rL656ex34Gws22EfM" >
            <path d="M137.173,362.667 L137.173,342.187 L25.6,342.187 L25.6,362.667 L137.173,362.667 M212.693,342.187 L212.693,362.667 L445.227,362.667 L445.227,342.187 L212.693,342.187 M520.747,342.187 L520.747,362.667 L632.32,362.667 L632.32,342.187 L520.747,342.187"/>
        </g>
        <g id="storey-a8f3bcfc-63b2-45c0-902d-c368556386c0-product-3340ab6f-4d66-43b2-9899-29d7cf17b29b-box" class="IfcDoor" data-name="Innentuer-2" data-guid="0pGAjlJMP3ifYPATVF5xAR" >
            <path d="M445.227,354.133 L445.227,362.667 L520.747,362.667 L520.747,354.133 L445.227,354.133"/>
        </g>
        <g id="storey-a8f3bcfc-63b2-45c0-902d-c368556386c0-product-b4b1964f-0cfd-4f21-84b4-a7552c71ed30-box" class="IfcDoor" data-name="Innentuer-3" data-guid="2qiPPF3FrF8OIqfrKiSUqm" >
            <path d="M137.173,354.133 L137.173,362.667 L212.693,362.667 L212.693,354.133 L137.173,354.133"/>
        </g>
        <g id="storey-a8f3bcfc-63b2-45c0-902d-c368556386c0-product-7feb09fa-819b-4d8b-8bb8-faaadfbbcc4e-box" class="IfcWallStandardCase" data-name="Wand-Int-ERDG-5" data-guid="1$wmdwWPjDYuku_ghVkynE" >
            <path d="M25.6,490.667 L25.6,511.147 L324.267,511.147 L324.267,490.667 L25.6,490.667"/>
        </g>
        <g id="storey-a8f3bcfc-63b2-45c0-902d-c368556386c0-product-f5661f93-e3d1-49ce-8861-886e8d4ef048-box" class="IfcWallStandardCase" data-name="Wand-Ext-ERDG-1" data-guid="3rPX_Juz59peXXY6wDJl18" >
            <path d="M3.31587e-14,853.333 L25.6,853.333 L25.6,750.507 L14.5067,750.507 L2.60532e-14,750.507 L3.31587e-14,853.333 M25.6,469.76 L3.31587e-14,469.76 L3.31587e-14,579.84 L14.5067,579.84 L25.6,579.84 L25.6,469.76 M25.6,383.573 L25.6,299.093 L14.5067,299.093 L2.60532e-14,299.093 L3.31587e-14,383.573 L25.6,383.573 M25.6,128.427 L25.6,0 L3.31587e-14,0 L3.31587e-14,128.427 L14.5067,128.427 L25.6,128.427"/>
        </g>
        <g id="storey-a8f3bcfc-63b2-45c0-902d-c368556386c0-product-76d4a4bf-6c47-48b2-b561-71747079c39d-box" class="IfcWindow" data-name="EG-Fenster-6" data-guid="1srAI$R4T8ihLXSNHmUSET" >
            <path d="M10.24,299.093 L16.64,299.093 L16.64,128.427 L10.24,128.427 L10.24,299.093"/>
        </g>
        <g id="storey-a8f3bcfc-63b2-45c0-902d-c368556386c0-product-0b05be8e-f7d6-4332-958e-1576ff7f4ac5-box" class="IfcWindow" data-name="EG-Fenster-7" data-guid="0B1RwEzzP3CfME5NR$Vqh5" >
            <path d="M10.24,750.507 L16.64,750.507 L16.64,579.84 L10.24,579.84 L10.24,750.507"/>
        </g>
        <g id="storey-a8f3bcfc-63b2-45c0-902d-c368556386c0-product-ad75bd26-aeda-47c8-b03c-ada184182740-box" class="IfcDoor" data-name="Haustuer" data-guid="2jTRqchjf7oB0yhQ6462T0" >
            <path d="M29.8667,383.573 L13.6533,383.573 L13.6533,469.76 L29.8667,469.76 L29.8667,383.573"/>
        </g>
        <g id="storey-a8f3bcfc-63b2-45c0-902d-c368556386c0-product-463575f4-f696-42de-bde9-918a6fe7650a-box" class="IfcWallStandardCase" data-name="Wand-Ext-ERDG-4" data-guid="16DNNqzfP2thtfaOflvsKA" >
            <path d="M1024,853.333 L1024,827.733 L871.253,827.733 L871.253,838.827 L871.253,853.333 L1024,853.333 M597.76,827.733 L597.76,853.333 L700.587,853.333 L700.587,838.827 L700.587,827.733 L597.76,827.733 M426.24,827.733 L323.413,827.733 L323.413,838.827 L323.413,853.333 L426.24,853.333 L426.24,827.733 M152.747,827.733 L3.31587e-14,827.733 L3.31587e-14,853.333 L152.747,853.333 L152.747,838.827 L152.747,827.733"/>
        </g>
        <g id="storey-a8f3bcfc-63b2-45c0-902d-c368556386c0-product-85c53ece-ce2a-4855-b353-5ee59e7d8030-box" class="IfcWindow" data-name="EG-Fenster-4" data-guid="25nJxEpYf8LRDJNkMUVO0m" >
            <path d="M323.413,843.093 L323.413,836.693 L152.747,836.693 L152.747,843.093 L323.413,843.093"/>
        </g>
        <g id="storey-a8f3bcfc-63b2-45c0-902d-c368556386c0-product-cb3e6f2f-3368-4711-968a-c9b2a81695f9-box" class="IfcWindow" data-name="EG-Fenster-5" data-guid="3BFcylCsX74PQAoRAe5fNv" >
            <path d="M871.253,843.093 L871.253,836.693 L700.587,836.693 L700.587,843.093 L871.253,843.093"/>
        </g>
        <g id="storey-a8f3bcfc-63b2-45c0-902d-c368556386c0-product-56feaede-d610-4fb3-aa03-64613ae87785-box" class="IfcDoor" data-name="Terrassentuer" data-guid="1M$gxUrX1Fiwe3P64ww7U5" >
            <path d="M426.24,825.6 L426.24,843.093 L597.76,843.093 L597.76,825.6 L426.24,825.6"/>
        </g>
        <g id="storey-a8f3bcfc-63b2-45c0-902d-c368556386c0-product-85a76959-f2e0-457f-9e21-4bff17528c54-box" class="IfcWallStandardCase" data-name="Wand-Ext-ERDG-3" data-guid="25fsbPyk15VvuXI$yNKenK" >
            <path d="M1024,0 L998.4,0 L998.4,127.796 L1009.49,127.796 L1024,127.796 L1024,0 M998.4,298.462 L998.4,579.84 L1009.49,579.84 L1024,579.84 L1024,298.462 L1009.49,298.462 L998.4,298.462 M998.4,750.507 L998.4,853.333 L1024,853.333 L1024,750.507 L1009.49,750.507 L998.4,750.507"/>
        </g>
        <g id="storey-a8f3bcfc-63b2-45c0-902d-c368556386c0-product-4391c887-27d9-48a5-9111-2b339303dfa8-box" class="IfcWindow" data-name="EG-Fenster-8" data-guid="13aSY79zb8fP4HApEJ0z_e" >
            <path d="M1013.76,127.796 L1007.36,127.796 L1007.36,298.462 L1013.76,298.462 L1013.76,127.796"/>
        </g>
        <g id="storey-a8f3bcfc-63b2-45c0-902d-c368556386c0-product-8e6abfad-ad90-4bf8-af8a-5b8713985380-box" class="IfcWindow" data-name="EG-Fenster-9" data-guid="2EQh_jhP1B_A_AMuSJc5E0" >
            <path d="M1013.76,579.84 L1007.36,579.84 L1007.36,750.507 L1013.76,750.507 L1013.76,579.84"/>
        </g>
        <g id="storey-a8f3bcfc-63b2-45c0-902d-c368556386c0-product-65f697f6-4f4c-4836-8159-e2e335d3cbfd-box" class="IfcWallStandardCase" data-name="Wand-Ext-ERDG-2" data-guid="1bzfVsJqn8De5PukCrqylz" >
            <path d="M3.31587e-14,0 L3.31587e-14,25.6 L89.6,25.6 L89.6,14.5067 L89.6,0 L3.31587e-14,0 M260.267,25.6 L397.653,25.6 L397.653,14.5067 L397.653,0 L260.267,0 L260.267,14.5067 L260.267,25.6 M568.32,25.6 L750.507,25.6 L750.507,14.5067 L750.507,0 L568.32,0 L568.32,14.5067 L568.32,25.6 M921.173,25.6 L1024,25.6 L1024,0 L921.173,0 L921.173,14.5067 L921.173,25.6"/>
        </g>
        <g id="storey-a8f3bcfc-63b2-45c0-902d-c368556386c0-product-5d292132-e148-4487-b12f-2cd8d2e05d16-box" class="IfcWindow" data-name="EG-Fenster-1" data-guid="1TAI4ouKX4Xx4lBDZIu5qM" >
            <path d="M89.6,10.24 L89.6,16.64 L260.267,16.64 L260.267,10.24 L89.6,10.24"/>
        </g>
        <g id="storey-a8f3bcfc-63b2-45c0-902d-c368556386c0-product-9a27a1f2-6e16-4210-9b4b-ca53967f4be3-box" class="IfcWindow" data-name="EG-Fenster-2" data-guid="2Q9w7oRXP249jBobEMVqlZ" >
            <path d="M397.653,10.24 L397.653,16.64 L568.32,16.64 L568.32,10.24 L397.653,10.24"/>
        </g>
        <g id="storey-a8f3bcfc-63b2-45c0-902d-c368556386c0-product-4db22d2b-a7d4-49ef-be13-9df47a84c5e4-box" class="IfcWindow" data-name="EG-Fenster-3" data-guid="1DiYqhfzH9xxuJdVHwXCNa" >
            <path d="M750.507,10.24 L750.507,16.64 L921.173,16.64 L921.173,10.24 L750.507,10.24"/>
        </g>
    </g>
    <g id="storey-870ea0fa-d15f-4dde-9892-bc7d34baa998" class="IfcBuildingStorey" data-name="Dachgeschoss" data-guid="273g3wqLzDtfYIl7qqkgcO"  data-plane="[[1.000000,0.000000,0.000000,0.000000],[0.000000,1.000000,0.000000,0.000000],[0.000000,0.000000,1.000000,3.900000],[0.000000,0.000000,0.000000,1.000000]]" data-matrix3="[[85.333333,0.000000,0.000000],[0.000000,85.333333,853.333333],[0.000000,0.000000,1.000000]]">
        <g id="storey-870ea0fa-d15f-4dde-9892-bc7d34baa998-product-2ec5748a-7cb6-4b3f-92fc-fb015a7d1d9e-body" class="IfcWallStandardCase" data-name="Wand-Ext-OG-1" data-guid="0knNIAVBPBFvBy_m5QVHsU" >
            <path d="M25.6,749.872 L25.6,468.466 L15.7867,468.466 L0,468.466 L3.31587e-14,749.872 L25.6,749.872 M25.6,384.867 L25.6,103.461 L3.31587e-14,103.461 L3.31587e-14,384.867 L15.7867,384.867 L25.6,384.867"/>
        </g>
        <g id="storey-870ea0fa-d15f-4dde-9892-bc7d34baa998-product-7d60be80-428b-4582-901a-293a51c58980-body" class="IfcWindow" data-name="OG-Fenster-2" data-guid="1zOBw0Gej5Wf0QAJfHnOc0" >
            <path d="M15.7867,384.872 L15.7867,393.659 L13.2267,393.659 L13.2267,384.872 L15.7867,384.872 M15.7867,459.675 L15.7867,468.461 L13.2267,468.461 L13.2267,459.675 L15.7867,459.675"/>
            <path d="M13.2267,384.872 L13.2267,393.659 L10.6667,393.659 L10.6667,384.872 L13.2267,384.872 M13.2267,459.675 L13.2267,468.461 L10.6667,468.461 L10.6667,459.675 L13.2267,459.675"/>
            <path d="M13.2267,393.659 L13.2267,398.052 L10.6667,398.052 L10.6667,393.659 L13.2267,393.659 M13.2267,455.281 L13.2267,459.675 L10.6667,459.675 L10.6667,455.281 L13.2267,455.281"/>
            <path d="M10.6667,391.901 L10.6667,398.052 L8.10667,398.052 L8.10667,391.901 L10.6667,391.901 M10.6667,455.281 L10.6667,461.432 L8.10667,461.432 L8.10667,455.281 L10.6667,455.281"/>
            <path d="M11.0933,398.052 L11.0933,455.281 L10.24,455.281 L10.24,398.052 L11.0933,398.052"/>
            <path d="M11.7333,425.6 L11.7333,427.733 L10.6667,427.733 L10.6667,425.6 L11.7333,425.6"/>
            <path d="M10.6667,425.6 L10.6667,427.733 L9.6,427.733 L9.6,425.6 L10.6667,425.6"/>
        </g>
        <g id="storey-870ea0fa-d15f-4dde-9892-bc7d34baa998-product-df324d5e-52a4-4197-8572-08263dee8193-body" class="IfcWallStandardCase" data-name="Wand-Ext-OG-3" data-guid="3VCarUKgH1buLo22Ozxe6J" >
            <path d="M998.4,103.461 L998.4,384.867 L1014.19,384.867 L1024,384.867 L1024,103.461 L998.4,103.461 M998.4,468.466 L998.4,749.872 L1024,749.872 L1024,468.466 L1014.19,468.466 L998.4,468.466"/>
        </g>
        <g id="storey-870ea0fa-d15f-4dde-9892-bc7d34baa998-product-8a3303cf-6ab7-4163-8a40-ec489b7ab270-body" class="IfcWindow" data-name="OG-Fenster-1" data-guid="2ACmFFQhT1Ouf0x4YRUh9m" >
            <path d="M1011.63,468.461 L1011.63,459.675 L1014.19,459.675 L1014.19,468.461 L1011.63,468.461 M1011.63,393.659 L1011.63,384.872 L1014.19,384.872 L1014.19,393.659 L1011.63,393.659"/>
            <path d="M1009.07,468.461 L1009.07,459.675 L1011.63,459.675 L1011.63,468.461 L1009.07,468.461 M1009.07,393.659 L1009.07,384.872 L1011.63,384.872 L1011.63,393.659 L1009.07,393.659"/>
            <path d="M1009.07,459.675 L1009.07,455.281 L1011.63,455.281 L1011.63,459.675 L1009.07,459.675 M1009.07,398.052 L1009.07,393.659 L1011.63,393.659 L1011.63,398.052 L1009.07,398.052"/>
            <path d="M1006.51,461.432 L1006.51,455.281 L1009.07,455.281 L1009.07,461.432 L1006.51,461.432 M1006.51,398.052 L1006.51,391.901 L1009.07,391.901 L1009.07,398.052 L1006.51,398.052"/>
            <path d="M1008.64,455.281 L1008.64,398.052 L1009.49,398.052 L1009.49,455.281 L1008.64,455.281"/>
            <path d="M1010.13,427.733 L1009.07,427.733 L1009.07,425.6 L1010.13,425.6 L1010.13,427.733"/>
            <path d="M1009.07,427.733 L1008,427.733 L1008,425.6 L1009.07,425.6 L1009.07,427.733"/>
        </g>
        <g id="storey-870ea0fa-d15f-4dde-9892-bc7d34baa998-product-2ec5748a-7cb6-4b3f-92fc-fb015a7d1d9e-box" class="IfcWallStandardCase" data-name="Wand-Ext-OG-1" data-guid="0knNIAVBPBFvBy_m5QVHsU" >
            <path d="M3.31587e-14,853.333 L25.6,853.333 L25.6,468.466 L15.7867,468.466 L0,468.466 L3.31587e-14,853.333 M25.6,384.867 L25.6,0 L3.31587e-14,0 L3.31587e-14,384.867 L15.7867,384.867 L25.6,384.867"/>
        </g>
        <g id="storey-870ea0fa-d15f-4dde-9892-bc7d34baa998-product-7d60be80-428b-4582-901a-293a51c58980-box" class="IfcWindow" data-name="OG-Fenster-2" data-guid="1zOBw0Gej5Wf0QAJfHnOc0" >
            <path d="M15.7867,384 L8.10667,384 L8.10667,469.333 L15.7867,469.333 L15.7867,384"/>
        </g>
        <g id="storey-870ea0fa-d15f-4dde-9892-bc7d34baa998-product-856206b9-c21b-452d-9abc-a35a99103de2-box" class="IfcWallStandardCase" data-name="Wand-Ext-OG-2" data-guid="25OWQvmXj5BPgyergP43tY" >
            <path d="M3.31587e-14,0 L3.31587e-14,25.6 L1024,25.6 L1024,0 L3.31587e-14,0"/>
        </g>
        <g id="storey-870ea0fa-d15f-4dde-9892-bc7d34baa998-product-df324d5e-52a4-4197-8572-08263dee8193-box" class="IfcWallStandardCase" data-name="Wand-Ext-OG-3" data-guid="3VCarUKgH1buLo22Ozxe6J" >
            <path d="M1024,0 L998.4,0 L998.4,384.867 L1014.19,384.867 L1024,384.867 L1024,0 M998.4,468.466 L998.4,853.333 L1024,853.333 L1024,468.466 L1014.19,468.466 L998.4,468.466"/>
        </g>
        <g id="storey-870ea0fa-d15f-4dde-9892-bc7d34baa998-product-8a3303cf-6ab7-4163-8a40-ec489b7ab270-box" class="IfcWindow" data-name="OG-Fenster-1" data-guid="2ACmFFQhT1Ouf0x4YRUh9m" >
            <path d="M1014.19,384 L1006.51,384 L1006.51,469.333 L1014.19,469.333 L1014.19,384"/>
        </g>
        <g id="storey-870ea0fa-d15f-4dde-9892-bc7d34baa998-product-dddedd7f-1498-4e82-9817-060791b68be3-box" class="IfcWallStandardCase" data-name="Wand-Ext-OG-4" data-guid="3Ttjr$59XEWfWN1WUHjelZ" >
            <path d="M1024,853.333 L1024,827.733 L3.31587e-14,827.733 L3.31587e-14,853.333 L1024,853.333"/>
        </g>
    </g>
</svg>
